<?xml version="1.0" standalone="no"?>
<!DOCTYPE svg PUBLIC "-//W3C//DTD SVG 20010904//EN"
 "http://www.w3.org/TR/2001/REC-SVG-20010904/DTD/svg10.dtd">
<svg version="1.0" xmlns="http://www.w3.org/2000/svg"
 width="1024.000000pt" height="1024.000000pt" viewBox="0 0 1024.000000 1024.000000"
 preserveAspectRatio="xMidYMid meet">
<metadata>
Created by potrace 1.14, written by Peter Selinger 2001-2017
</metadata>
<g transform="translate(0.000000,1024.000000) scale(0.100000,-0.100000)"
fill="#000000" stroke="none">
<path d="M4890 10088 c-85 -50 -173 -100 -195 -113 -22 -12 -152 -87 -290
-167 -137 -79 -279 -161 -315 -182 -36 -20 -72 -41 -80 -46 -16 -11 -215 -126
-287 -166 -23 -13 -92 -53 -153 -89 -61 -36 -115 -65 -121 -65 -5 0 -9 -4 -9
-10 0 -5 -4 -10 -9 -10 -5 0 -236 -131 -513 -291 -276 -161 -519 -300 -538
-311 -19 -11 -48 -27 -65 -37 -203 -121 -1179 -681 -1186 -681 -5 0 -9 -4 -9
-9 0 -5 -8 -11 -17 -14 -10 -4 -38 -18 -63 -33 -25 -14 -92 -54 -150 -87 -58
-33 -108 -64 -111 -69 -6 -9 -6 -37 7 -848 4 -278 7 -525 6 -548 -1 -33 2 -43
12 -39 7 3 157 89 334 191 176 102 336 194 354 204 18 11 121 70 228 132 107
62 210 121 228 132 18 10 102 58 185 106 84 49 233 135 332 193 99 57 189 109
200 116 11 7 27 15 35 20 8 4 38 20 65 36 28 17 66 39 85 50 19 10 136 78 260
149 124 72 299 173 390 226 91 52 208 120 260 151 52 31 107 62 123 71 32 17
165 94 384 221 83 49 169 98 190 110 52 29 423 244 502 290 71 41 60 42 146
-10 17 -10 50 -29 75 -43 98 -55 436 -252 453 -263 16 -11 5 -20 -95 -78 -62
-36 -212 -122 -333 -192 -121 -70 -323 -187 -450 -260 -126 -73 -246 -142
-265 -154 -19 -11 -51 -29 -70 -40 -19 -10 -172 -99 -340 -196 -168 -98 -323
-187 -345 -199 -22 -13 -200 -115 -395 -228 -195 -113 -371 -215 -390 -226
-83 -47 -526 -303 -540 -311 -8 -5 -85 -50 -170 -99 -85 -49 -227 -131 -315
-182 -88 -51 -175 -101 -192 -111 -18 -10 -119 -69 -225 -130 -169 -98 -295
-171 -418 -241 -19 -11 -71 -41 -115 -66 -44 -25 -101 -58 -126 -74 l-45 -29
2 -182 c1 -100 6 -407 10 -682 4 -275 7 -517 6 -537 -1 -21 1 -38 3 -38 3 0
60 32 128 71 67 40 142 83 167 97 25 14 81 46 125 72 44 25 188 109 320 185
132 76 269 155 304 177 34 21 64 38 66 38 2 0 123 70 270 155 146 85 269 155
271 155 3 0 17 8 32 19 22 15 169 100 482 280 108 62 274 157 302 174 48 29
310 179 333 192 11 6 39 23 62 38 24 15 45 27 47 27 3 0 27 13 54 29 26 15 68
39 93 53 24 14 82 48 129 75 87 51 456 265 520 301 19 11 321 185 670 387 349
202 721 416 825 477 105 60 197 114 205 119 8 5 83 48 165 95 83 47 231 133
330 190 100 57 186 104 192 104 7 0 33 -13 60 -29 48 -29 339 -198 485 -282
43 -24 78 -46 78 -49 -1 -3 -49 -32 -107 -65 -125 -70 -156 -88 -323 -185 -69
-40 -139 -81 -157 -91 -47 -27 -423 -244 -460 -265 -48 -29 -251 -145 -308
-177 -27 -16 -86 -50 -130 -76 -44 -27 -107 -63 -140 -82 -33 -19 -67 -38 -76
-44 -9 -5 -43 -25 -75 -43 -32 -17 -66 -37 -74 -42 -8 -6 -69 -41 -135 -79
l-120 -69 -2 -727 c-2 -630 -1 -726 12 -721 8 3 117 64 242 137 125 73 287
166 358 207 72 41 155 89 185 107 30 18 75 44 100 58 118 65 508 291 532 308
15 11 29 19 31 19 2 0 71 39 153 86 82 48 170 98 195 113 39 22 272 157 372
215 18 10 282 162 587 339 305 176 652 376 770 445 232 135 284 165 372 214
l58 32 -5 306 c-2 168 -4 331 -4 362 l-1 58 -105 62 c-58 35 -118 70 -133 79
-15 9 -274 164 -577 344 -302 180 -599 357 -660 393 -60 35 -122 73 -137 83
-14 11 -28 19 -31 19 -2 0 -56 31 -118 69 -199 119 -1013 605 -1034 617 -11 5
-76 44 -145 85 -69 41 -133 79 -142 84 -10 6 -190 113 -400 240 -211 126 -392
235 -403 241 -11 6 -117 68 -235 139 -118 70 -217 129 -220 130 -3 2 -75 -37
-160 -87z"/>
<path d="M9380 6126 c-14 -7 -54 -30 -90 -52 -36 -21 -81 -48 -101 -59 -32
-18 -304 -175 -347 -200 -44 -26 -210 -121 -234 -135 -15 -8 -68 -39 -118 -67
-49 -29 -129 -76 -177 -103 -49 -28 -95 -55 -103 -60 -16 -10 -183 -107 -510
-295 -113 -65 -218 -126 -235 -136 -16 -11 -37 -22 -45 -26 -8 -3 -46 -25 -85
-48 -38 -23 -116 -69 -173 -101 -56 -32 -110 -63 -120 -69 -9 -5 -44 -25 -77
-44 -63 -36 -253 -146 -365 -211 -36 -21 -148 -86 -250 -144 -102 -58 -192
-110 -200 -116 -8 -5 -91 -53 -185 -107 -93 -54 -179 -103 -190 -110 -11 -7
-27 -15 -35 -19 -8 -4 -35 -20 -60 -34 -91 -54 -246 -144 -755 -438 -286 -165
-536 -309 -555 -321 -19 -11 -42 -24 -50 -28 -8 -4 -58 -32 -110 -63 -52 -32
-99 -59 -105 -61 -37 -15 -143 -84 -137 -90 4 -4 79 -48 167 -99 88 -50 167
-96 175 -101 8 -5 80 -46 160 -92 573 -331 741 -427 748 -427 8 0 181 96 252
139 8 5 118 70 245 143 126 73 238 138 247 143 9 6 34 20 55 31 21 12 175 101
342 198 167 97 305 176 307 176 3 0 23 12 47 27 23 15 96 57 162 95 66 37 127
72 135 78 17 11 105 61 165 95 22 12 108 62 190 110 83 48 175 101 205 118 30
16 62 35 70 41 15 11 30 20 109 64 46 25 269 153 451 259 52 30 124 72 160 93
36 21 180 104 320 185 256 148 397 230 435 252 11 7 27 15 35 19 8 4 35 20 60
35 61 37 148 86 188 106 l33 17 -6 411 c-12 866 -15 1028 -18 1031 -2 2 -14
-3 -27 -10z"/>
<path d="M4756 5643 c-4 -5 -27 -19 -51 -33 -24 -14 -95 -54 -157 -90 -62 -36
-135 -78 -163 -93 -27 -16 -67 -39 -87 -53 -21 -13 -40 -24 -43 -24 -2 0 -53
-28 -112 -63 -113 -66 -413 -240 -473 -275 -19 -10 -123 -70 -230 -132 -107
-62 -208 -120 -225 -130 -72 -41 -293 -170 -325 -189 -19 -11 -51 -29 -70 -40
-19 -10 -262 -150 -540 -311 -278 -161 -521 -301 -540 -312 -68 -39 -696 -402
-800 -462 l-105 -62 2 -229 c3 -387 6 -483 12 -492 3 -5 62 -42 131 -83 69
-40 170 -101 225 -135 55 -33 107 -64 115 -68 8 -4 29 -16 45 -27 17 -11 48
-29 69 -41 22 -12 90 -52 150 -88 88 -53 785 -470 933 -557 55 -33 166 -99
192 -114 135 -79 785 -468 813 -486 21 -13 42 -24 48 -24 5 0 10 -4 10 -8 0
-4 19 -18 43 -30 23 -12 49 -26 57 -32 19 -12 143 -86 191 -114 29 -16 778
-464 849 -507 225 -136 457 -272 465 -272 6 0 124 66 264 146 140 81 258 147
263 147 4 0 8 5 8 10 0 6 4 10 10 10 5 0 44 20 86 45 41 25 77 45 79 45 2 0
32 17 66 38 35 22 156 92 269 157 113 65 219 126 235 136 17 10 46 27 65 37
19 11 132 75 250 144 312 181 739 428 780 451 19 10 103 59 186 107 83 49 169
99 190 111 21 12 66 37 99 56 33 19 80 46 105 60 25 14 56 32 70 41 14 9 39
24 55 33 42 23 911 525 1067 616 l128 75 -5 411 c-11 834 -14 1019 -19 1024
-4 4 -31 -10 -121 -64 -11 -7 -27 -15 -35 -19 -8 -4 -73 -42 -146 -85 -72 -42
-151 -88 -175 -102 -54 -30 -224 -128 -299 -172 -178 -104 -625 -361 -680
-392 -19 -11 -190 -110 -380 -220 -190 -110 -538 -311 -775 -448 -236 -137
-513 -297 -615 -356 -102 -58 -203 -117 -225 -129 -22 -12 -96 -55 -165 -95
-303 -177 -613 -355 -618 -355 -4 0 -216 121 -324 185 -9 6 -29 17 -45 26 -37
20 -476 274 -623 359 -63 37 -131 77 -150 87 -32 18 -231 133 -645 372 -82 48
-281 163 -442 256 l-292 168 90 54 c50 29 107 62 127 73 20 11 44 25 52 30 8
5 98 58 200 116 102 58 214 123 250 144 36 21 180 104 320 185 140 81 327 189
415 240 88 51 177 102 198 114 21 12 107 61 190 110 84 48 178 102 209 120 32
18 60 37 64 43 4 5 6 318 6 694 1 525 -2 691 -12 714 -13 31 -21 36 -34 23z"/>
</g>
</svg>
